PathFileType	4	(X/Y/Z)	E:\3-PhD\Data\MocapData\ElaboratedData\015\pre\dynamicElaborations\RunL1\RunL1.trc
DataRate	CameraRate	NumFrames	NumMarkers	Units	OrigDataRate	OrigDataStartFrame	OrigNumFrames
200	200	4	61	mm	200	2.560000e+02	124
Frame#	Time	FHD			LBHD			RBHD			C7			T10			CLAV			LSHO			LUUPA			LMUPA			LDUPA			LLEP			LMEP			LRAD			LUL			LRFIN			RSHO			RUPA1			RMUPA			RDUPA			RLEP			RMEP			RRAD			RUL			RUFIN			LASI			RASI			USACR			LSACR			RSACR			LTHI1			LTHI2			LTHI3			LTHI4			LLFC			LMFC			LTIB1			LTIB2			LTIB3			LTIB4			LLMAL			LMMAL			LHEE			LMT1			LMT5			LMT2			RTHI			RTHI2			RTHI3			RTHI4			RLFC			RMFC			RTIB1			RTIB2			RTIB3			RTIB4			RLMAL			RMMAL			RHEE			RMT1			RMT2			RMT5		
		X1	Y1	Z1	X2	Y2	Z2	X3	Y3	Z3	X4	Y4	Z4	X5	Y5	Z5	X6	Y6	Z6	X7	Y7	Z7	X8	Y8	Z8	X9	Y9	Z9	X10	Y10	Z10	X11	Y11	Z11	X12	Y12	Z12	X13	Y13	Z13	X14	Y14	Z14	X15	Y15	Z15	X16	Y16	Z16	X17	Y17	Z17	X18	Y18	Z18	X19	Y19	Z19	X20	Y20	Z20	X21	Y21	Z21	X22	Y22	Z22	X23	Y23	Z23	X24	Y24	Z24	X25	Y25	Z25	X26	Y26	Z26	X27	Y27	Z27	X28	Y28	Z28	X29	Y29	Z29	X30	Y30	Z30	X31	Y31	Z31	X32	Y32	Z32	X33	Y33	Z33	X34	Y34	Z34	X35	Y35	Z35	X36	Y36	Z36	X37	Y37	Z37	X38	Y38	Z38	X39	Y39	Z39	X40	Y40	Z40	X41	Y41	Z41	X42	Y42	Z42	X43	Y43	Z43	X44	Y44	Z44	X45	Y45	Z45	X46	Y46	Z46	X47	Y47	Z47	X48	Y48	Z48	X49	Y49	Z49	X50	Y50	Z50	X51	Y51	Z51	X52	Y52	Z52	X53	Y53	Z53	X54	Y54	Z54	X55	Y55	Z55	X56	Y56	Z56	X57	Y57	Z57	X58	Y58	Z58	X59	Y59	Z59	X60	Y60	Z60	X61	Y61	Z61	
302	1.505000	-1128.003748	1483.819886	180.006678	-1243.536598	1559.505275	147.565329	-1265.388153	1575.628974	272.250525	-1432.759711	1470.495920	212.628979	-1554.283461	1150.819655	234.409483	-1314.652970	1346.033031	216.962900	-1363.160798	1435.568741	38.835661	-1373.739852	1254.803503	-46.785341	-1341.892264	1221.469503	-31.874142	-1375.447617	1190.275156	-69.745445	-1390.337003	1110.963241	-86.479912	-1408.437808	1084.765516	10.875595	-1157.199570	1065.321250	25.717241	-1181.304266	1121.809052	68.218682	-1099.742151	1147.054293	73.716356	-1384.371329	1453.825734	390.025154	-1502.153829	1383.254484	512.616901	-1484.538880	1344.646250	537.535988	-1540.764382	1349.822673	561.064727	-1584.344918	1264.994201	621.070864	-1634.316801	1247.214041	556.271578	-1443.985856	1045.318048	544.858441	-1475.845858	1011.608484	603.689696	-1385.576161	983.497174	551.281146	-1447.964437	959.567614	100.521425	-1421.904827	959.295528	354.773221	-1598.662891	1045.748442	251.350937	-1609.633872	1013.698986	225.255696	-1604.583587	1016.800214	282.615194	-1575.137686	674.204277	40.389350	-1548.525118	595.180236	30.534707	-1501.523264	591.440712	23.630608	-1570.845615	542.876536	53.883278	-1583.107282	451.162519	60.269032	-1557.172549	440.055724	183.569970	-1614.644413	287.242070	96.098957	-1693.222290	283.915571	54.236479	-1659.352309	258.820295	73.112102	-1707.413969	197.697792	110.982742	-1832.469786	142.240523	105.368364	-1808.807747	143.025081	188.584926	-1916.824296	122.511978	164.731906	-1719.090403	54.668894	163.589359	-1771.951544	29.277771	70.299171	-1725.820335	51.615778	116.576181	-1394.041968	808.594282	435.929392	-1333.767963	785.755260	425.817177	-1313.988431	800.670743	402.532384	-1309.790920	704.448326	436.677560	-1274.213179	527.904723	398.725916	-1255.752972	524.937804	267.643554	-1409.952807	380.806098	340.263271	-1512.542637	401.500488	375.715040	-1491.488436	362.351025	359.723141	-1527.015550	332.041242	326.243682	-1612.818932	332.471801	347.533615	-1593.538675	339.823857	267.233591	-1698.855660	377.074062	295.659909	-1577.118250	187.778482	269.792647	-1582.675515	189.344016	311.819700	-1633.744805	203.392129	362.001602	
303	1.510000	-1104.388696	1486.522414	183.551396	-1219.688773	1562.275854	150.757611	-1242.017199	1578.084933	275.388761	-1409.052967	1472.502296	213.146161	-1529.138080	1152.203184	232.741346	-1290.233467	1349.145380	219.545690	-1336.897620	1438.845115	40.819865	-1344.995805	1258.456482	-45.369919	-1313.409917	1225.147197	-29.761134	-1345.965650	1194.067461	-68.566238	-1360.655005	1114.634427	-85.646285	-1380.430451	1088.430717	11.445692	-1129.030006	1075.950499	31.377241	-1155.337136	1132.132648	72.899048	-1074.648385	1159.619085	79.517800	-1364.110959	1457.025256	390.725955	-1482.955825	1388.147329	512.181568	-1465.675642	1349.748147	537.662172	-1522.114231	1355.305540	560.646941	-1566.909545	1271.068002	620.594265	-1616.087079	1252.857972	555.253842	-1423.932605	1052.633205	545.735478	-1456.065967	1018.535263	603.959966	-1365.028968	990.814445	552.185860	-1420.765344	960.501179	101.016816	-1398.349847	962.638236	355.597438	-1573.631866	1047.151821	249.325689	-1584.214520	1014.921834	223.294947	-1580.130200	1018.433988	280.670544	-1555.945630	677.365953	40.087342	-1532.134144	597.382961	30.688432	-1485.194794	592.229593	24.319445	-1556.859361	545.949412	53.682456	-1572.627139	454.550353	60.186338	-1547.223980	442.379361	183.738462	-1607.682605	290.652168	94.526203	-1686.592670	289.215610	52.853693	-1653.275507	263.527147	71.450979	-1701.624745	202.139448	108.589438	-1827.080592	147.339413	102.644928	-1802.996847	147.827757	185.670600	-1911.257398	131.219601	161.908954	-1718.413184	54.180103	163.371476	-1771.415410	29.778190	70.230025	-1725.133711	51.511625	116.285732	-1368.996272	813.301849	435.792460	-1308.120577	792.287893	425.445565	-1288.676971	808.101318	402.440746	-1281.959461	711.533842	435.601282	-1241.372849	535.800111	396.905815	-1222.943928	534.924724	266.106041	-1369.299501	381.194324	338.653656	-1472.790403	395.634683	374.904657	-1449.610413	357.814539	358.505815	-1483.464586	325.757513	325.174129	-1569.537411	321.260520	346.901861	-1550.567265	329.764188	266.634680	-1658.058267	360.864967	295.098990	-1524.915428	179.423172	269.076908	-1530.680716	180.735520	311.374358	-1582.649047	191.135178	361.225999	
304	1.515000	-1080.745156	1489.360192	187.097584	-1195.871951	1565.144226	154.030953	-1218.632635	1580.601575	278.627186	-1385.227151	1474.570612	213.746707	-1503.806733	1153.672544	231.087386	-1265.753736	1352.356381	222.180497	-1310.665164	1442.259266	42.885074	-1316.301178	1262.285836	-43.802595	-1285.050079	1228.985876	-27.463280	-1316.507321	1198.054909	-67.263430	-1331.211848	1118.527609	-84.800762	-1352.958982	1092.290723	11.906050	-1101.491671	1086.524465	36.793716	-1129.942861	1142.280665	77.426295	-1050.171656	1171.931580	85.163493	-1343.641453	1460.153491	391.450083	-1463.373810	1392.737920	511.827072	-1446.478452	1354.456143	537.726960	-1503.085371	1360.418306	560.245206	-1549.056846	1276.734805	619.987943	-1597.552883	1258.261859	554.157511	-1403.609776	1059.579200	546.461161	-1436.092713	1025.074570	604.056507	-1344.217690	997.777993	552.992565	-1393.296301	961.445795	101.661444	-1374.675360	966.118976	356.381891	-1548.401976	1048.643371	247.361536	-1558.576548	1016.212638	221.424212	-1555.500112	1020.195006	278.785183	-1536.429054	680.956408	39.897221	-1515.370080	600.160909	30.901481	-1468.539997	593.646997	25.144533	-1542.427563	549.662570	53.461998	-1561.812457	458.745029	60.168902	-1536.814304	445.143058	183.939248	-1600.212647	294.856227	92.743323	-1679.291611	294.934687	51.158546	-1646.601468	268.891268	69.648475	-1694.983221	207.049299	105.933690	-1820.810246	152.530943	99.600873	-1796.258740	152.618292	182.404878	-1904.585094	140.313287	158.778113	-1717.523317	53.686718	163.043325	-1770.677509	30.414881	70.057453	-1724.254757	51.439043	115.905393	-1343.937883	817.892835	435.700014	-1282.588340	798.511363	425.142673	-1263.453744	815.193257	402.444481	-1254.490692	718.308584	434.513092	-1209.358557	543.547224	394.983835	-1191.082351	544.750413	264.628199	-1328.858141	381.615216	337.136052	-1432.932241	389.701488	374.041783	-1407.640478	353.317848	357.341283	-1439.661779	319.500251	324.149718	-1525.712877	309.977407	346.236071	-1507.105805	319.654361	266.045747	-1616.409983	344.293896	294.426449	-1472.313020	171.518667	268.521505	-1478.155873	172.607023	311.070585	-1530.875281	179.272478	360.524914	
305	1.520000	-1057.088773	1492.304189	190.635593	-1172.112969	1568.067802	157.365011	-1195.261571	1583.141153	281.944985	-1361.295453	1476.660268	214.422835	-1478.337214	1155.200158	229.416993	-1241.240304	1355.613939	224.863412	-1284.446425	1445.764787	45.034987	-1287.679811	1266.252256	-42.088722	-1256.837464	1232.941786	-25.022036	-1287.119875	1202.194647	-65.847741	-1302.033208	1122.615238	-83.965627	-1326.009554	1096.316271	12.237810	-1074.559445	1096.945057	41.971667	-1105.086923	1152.178944	81.787310	-1026.261319	1183.910615	90.623199	-1322.953434	1463.187898	392.209076	-1443.427522	1397.019236	511.545220	-1426.956749	1358.773205	537.746150	-1483.698061	1365.160846	559.852868	-1530.781624	1281.984170	619.262077	-1578.690820	1263.402192	552.970876	-1382.999942	1066.115345	547.036265	-1415.918644	1031.187135	603.998456	-1323.135280	1004.348837	553.710615	-1365.621291	962.382315	102.434040	-1350.886570	969.682885	357.085843	-1522.991642	1050.211285	245.468812	-1532.751423	1017.565448	219.647457	-1530.698201	1022.065211	276.966628	-1516.597332	684.900752	39.826027	-1498.252062	603.424682	31.216291	-1451.576964	595.584816	26.136093	-1527.561599	553.935877	53.279383	-1550.698922	463.691286	60.257955	-1525.961936	448.293815	184.199916	-1592.163019	299.785644	90.784917	-1671.296642	301.061500	49.238640	-1639.268734	274.847528	67.725441	-1687.419993	212.363990	103.044035	-1813.577269	157.775666	96.246773	-1788.556062	157.323040	178.821014	-1896.731515	149.754639	155.339560	-1716.358251	53.247424	162.592524	-1769.672338	31.252608	69.753468	-1723.129798	51.424955	115.423991	-1318.828131	822.338989	435.663844	-1257.121415	804.382347	424.903211	-1238.267453	821.895203	402.531622	-1227.335675	724.710524	433.422537	-1178.156458	551.043962	392.960380	-1160.166363	554.250539	263.262223	-1288.629879	382.025378	335.720018	-1392.953682	383.709478	373.127693	-1365.583379	348.880639	356.235798	-1395.611294	313.311023	323.176852	-1481.322317	298.697013	345.538307	-1463.137917	309.580011	265.466027	-1573.872894	327.457801	293.650587	-1419.313401	164.100861	268.104548	-1425.154179	165.002174	310.882422	-1478.434809	167.905187	359.921205	
